<?xml version="1.0" standalone="no"?>
<!DOCTYPE svg PUBLIC "-//W3C//DTD SVG 20010904//EN"
 "http://www.w3.org/TR/2001/REC-SVG-20010904/DTD/svg10.dtd">
<svg version="1.0" xmlns="http://www.w3.org/2000/svg"
 width="1472.000000pt" height="832.000000pt" viewBox="0 0 1472.000000 832.000000"
 preserveAspectRatio="xMidYMid meet">

<g transform="translate(0.000000,832.000000) scale(0.100000,-0.100000)"
fill="#000000" stroke="none">
<path d="M14613 8308 c39 -14 28 -34 -17 -30 -20 2 -36 -2 -36 -8 0 -5 11 -10
23 -10 37 0 39 -11 7 -42 -17 -15 -30 -35 -30 -42 0 -8 -6 -16 -12 -19 -7 -2
-2 -2 12 0 17 2 35 -6 58 -28 18 -17 45 -34 60 -38 24 -7 27 -12 27 -51 0 -39
-3 -44 -29 -53 -21 -7 -30 -6 -37 4 -6 9 -9 -1 -9 -28 0 -43 0 -43 38 -43 24
0 32 -3 23 -9 -7 -5 -21 -6 -31 -4 -16 4 -37 -24 -25 -35 3 -3 5 0 5 6 0 7 16
12 40 12 l40 0 0 215 0 215 -67 -1 c-59 0 -64 -2 -40 -11z m40 -115 c-22 -8
-14 -20 20 -28 l32 -7 -30 -9 c-19 -5 -31 -5 -33 1 -2 6 -12 10 -23 10 -10 0
-19 4 -19 8 0 15 24 32 45 31 11 0 14 -3 8 -6z m24 -234 c22 -8 24 -12 13 -19
-26 -17 -50 -11 -50 10 0 23 0 23 37 9z"/>
<path d="M14540 8110 c-13 -8 -12 -10 3 -10 9 0 17 5 17 10 0 12 -1 12 -20 0z"/>
<path d="M14670 8040 c0 -22 5 -40 10 -40 6 0 10 18 10 40 0 22 -4 40 -10 40
-5 0 -10 -18 -10 -40z"/>
<path d="M14650 7860 c0 -5 5 -10 10 -10 6 0 11 -37 12 -87 l2 -88 3 84 c3 73
6 84 23 88 32 9 23 23 -15 23 -19 0 -35 -4 -35 -10z"/>
<path d="M14693 7760 c0 -47 2 -66 4 -42 2 23 2 61 0 85 -2 23 -4 4 -4 -43z"/>
<path d="M14713 7760 c0 -47 2 -66 4 -42 2 23 2 61 0 85 -2 23 -4 4 -4 -43z"/>
<path d="M4915 6304 c11 -8 49 -34 85 -57 94 -60 264 -234 339 -347 66 -98
250 -466 753 -1500 55 -113 140 -288 188 -390 48 -102 132 -275 185 -385 54
-110 134 -279 180 -375 45 -96 156 -326 245 -510 89 -184 230 -477 312 -650
83 -173 153 -319 158 -323 4 -4 17 16 30 45 29 68 254 544 565 1193 42 88 115
241 162 340 47 99 144 302 215 450 72 149 215 448 318 665 605 1274 635 1335
709 1447 105 157 245 291 387 370 l69 38 -498 3 c-274 1 -720 1 -990 0 l-492
-3 70 -24 c39 -13 108 -42 155 -64 227 -110 365 -362 330 -606 -16 -113 -51
-204 -187 -486 -190 -393 -475 -1000 -668 -1420 -93 -204 -183 -385 -191 -385
-3 0 -36 64 -74 143 -129 269 -183 382 -260 547 -102 217 -418 873 -564 1171
-136 279 -165 360 -173 479 -18 282 123 484 415 596 54 20 101 41 106 45 6 5
-416 9 -945 9 -850 -1 -952 -3 -934 -16z"/>
<path d="M14695 4580 c-3 -5 1 -10 9 -10 9 0 16 5 16 10 0 6 -4 10 -9 10 -6 0
-13 -4 -16 -10z"/>
<path d="M14673 4280 c0 -25 2 -35 4 -22 2 12 2 32 0 45 -2 12 -4 2 -4 -23z"/>
<path d="M14692 4287 c-1 -21 2 -46 8 -56 7 -14 5 -23 -10 -36 -16 -14 -20
-30 -18 -69 l1 -51 6 45 5 45 7 -40 c6 -39 7 -39 4 8 -1 34 2 50 11 54 10 4
14 24 12 72 -1 62 -1 64 -8 21 l-6 -45 -5 45 c-6 45 -6 45 -7 7z"/>
<path d="M14713 4120 c0 -25 2 -35 4 -22 2 12 2 32 0 45 -2 12 -4 2 -4 -23z"/>
<path d="M14686 4061 c-18 -7 -18 -8 -2 -14 27 -11 36 -8 36 8 0 16 -5 17 -34
6z"/>
<path d="M14677 4003 c-4 -3 -6 -43 -5 -87 l2 -81 6 85 6 85 4 -85 4 -85 6 85
6 85 2 -87 2 -87 -27 -3 c-22 -2 -28 -8 -28 -28 0 -21 -6 -26 -35 -31 -26 -5
-29 -7 -10 -8 27 -1 55 -35 44 -52 -4 -8 -9 -7 -15 2 -8 11 -13 9 -28 -8 -11
-13 -27 -23 -38 -24 -15 0 -14 -2 5 -9 12 -5 22 -13 22 -19 0 -5 -10 -12 -22
-15 l-23 -7 23 -9 c27 -12 29 -36 2 -52 -25 -16 -26 -48 -2 -48 16 -1 16 -1 0
-14 -22 -16 -23 -26 -3 -26 21 0 19 -17 -5 -30 -29 -15 -29 -90 0 -90 26 0 16
-24 -17 -39 -18 -8 -29 -9 -37 -1 -13 13 -36 13 -36 0 0 -5 6 -10 14 -10 7 0
27 -7 42 -15 l29 -15 -50 -1 -50 -1 34 -12 c28 -10 31 -14 17 -19 -10 -4 -28
-7 -41 -7 -13 0 -28 -6 -32 -14 -4 -8 -17 -16 -28 -19 -11 -3 9 -3 45 -1 36 1
55 1 43 -2 -13 -3 -23 -11 -23 -18 0 -6 -6 -24 -12 -39 -10 -20 -20 -27 -40
-27 -16 0 -28 -4 -28 -10 0 -5 18 -10 40 -10 33 0 40 -3 40 -20 0 -17 -7 -20
-40 -20 -22 0 -40 4 -40 10 0 5 -7 7 -16 3 -13 -5 -11 -9 10 -22 20 -12 26
-24 27 -51 1 -19 3 -47 4 -62 2 -15 -3 -32 -11 -39 -11 -9 -14 -8 -14 7 0 41
-25 -8 -30 -59 -5 -47 -8 -53 -37 -66 -39 -17 -44 -34 -8 -25 14 3 25 2 25 -4
0 -5 -12 -13 -26 -16 -20 -5 -24 -10 -15 -19 18 -18 13 -26 -21 -36 l-33 -9
33 -1 c42 -1 32 -21 -11 -22 -18 0 -26 -3 -19 -6 15 -6 16 -83 1 -83 -6 0 -17
-7 -25 -15 -9 -8 -11 -15 -5 -15 6 0 11 -16 11 -35 0 -19 5 -35 10 -35 6 0 10
-9 10 -20 0 -22 -16 -27 -23 -7 -3 8 -10 7 -23 -7 -14 -13 -15 -20 -6 -23 6
-3 12 -13 12 -24 0 -10 5 -19 10 -19 6 0 10 -9 10 -20 0 -20 -24 -28 -34 -11
-4 5 -17 4 -32 -2 -24 -11 -25 -15 -21 -64 l6 -53 -40 0 c-21 0 -39 -4 -39
-10 0 -5 18 -10 40 -10 22 0 40 -4 40 -10 0 -5 -24 -10 -52 -11 -29 0 -47 -3
-40 -6 6 -2 12 -11 12 -19 0 -8 -6 -24 -12 -35 -10 -17 -10 -23 0 -26 6 -3 12
-10 12 -16 0 -8 -4 -7 -12 1 -23 23 -35 13 -35 -28 0 -41 12 -51 35 -28 9 9
12 9 12 -1 0 -8 -8 -20 -17 -27 -17 -13 -17 -13 0 -14 19 0 24 -20 4 -20 -7 0
-25 -6 -40 -12 -20 -10 -27 -20 -27 -42 0 -16 -8 -35 -17 -42 -17 -13 -17 -13
0 -14 9 0 17 -7 17 -15 0 -11 -11 -15 -40 -15 -22 0 -40 -4 -40 -10 0 -5 18
-10 40 -10 69 0 44 -17 -42 -28 l-83 -11 74 5 c74 6 90 0 91 -34 0 -10 -4 -10
-20 0 -16 11 -22 9 -35 -7 -12 -14 -18 -16 -21 -7 -7 14 -84 17 -84 2 0 -5 18
-10 39 -10 26 0 41 -5 45 -16 3 -8 2 -12 -4 -9 -6 3 -10 1 -10 -5 0 -6 -4 -9
-9 -6 -10 7 -31 -69 -31 -112 0 -45 -28 -50 -32 -5 l-3 35 -30 -28 -30 -29 25
-3 c26 -4 40 -18 40 -40 0 -9 -4 -10 -18 -1 -16 10 -24 6 -51 -20 l-32 -32 27
7 c20 5 26 4 22 -7 -7 -20 -57 -36 -66 -22 -11 17 -122 5 -122 -13 0 -10 13
-14 40 -14 22 0 40 5 40 10 0 6 9 10 20 10 28 0 25 -14 -5 -28 -20 -10 -25
-19 -25 -51 0 -32 3 -38 18 -35 9 2 31 0 47 -5 29 -9 29 -9 -12 -10 -35 -1
-43 -4 -43 -20 0 -10 7 -21 15 -25 36 -13 11 -26 -51 -26 l-66 0 5 -42 c2 -24
8 -54 12 -66 7 -23 7 -23 -14 -10 -19 11 -23 11 -32 -4 -13 -24 -27 -23 -31 3
-3 20 -4 20 -33 -7 l-30 -29 35 -6 35 -6 -30 -3 c-16 -1 -34 -3 -40 -5 -5 -1
-16 -3 -23 -3 -7 -1 -10 -7 -7 -12 3 -6 17 -7 30 -4 12 3 26 1 29 -5 7 -11 -5
-15 -31 -12 -7 1 -13 -2 -13 -8 0 -5 -19 -12 -42 -16 l-42 -7 27 -15 c34 -17
25 -37 -14 -29 -22 4 -32 1 -41 -14 -7 -11 -23 -20 -35 -20 -20 0 -23 -5 -23
-40 l0 -40 -40 0 -40 0 -2 -42 -1 -43 -7 45 -7 45 -3 -45 -3 -45 -7 40 -8 40
3 -47 c2 -50 -11 -73 -38 -62 -8 3 -18 1 -22 -5 -3 -6 1 -11 9 -11 20 0 21
-44 4 -83 -11 -22 -20 -27 -50 -27 l-38 0 20 -32 c22 -37 25 -48 10 -48 -5 0
-10 6 -10 14 0 9 -7 12 -19 9 -10 -3 -22 0 -25 6 -4 6 -12 11 -19 11 -8 0 -8
-3 1 -12 16 -16 15 -28 0 -28 -7 0 -20 -5 -28 -10 -13 -9 -13 -11 0 -20 13 -9
13 -11 0 -20 -9 -6 -11 -13 -5 -17 6 -5 11 -21 13 -36 3 -25 1 -27 -16 -16
-17 11 -23 8 -45 -14 -25 -27 -51 -35 -62 -17 -13 22 -35 -3 -35 -41 0 -36 -3
-40 -30 -46 -27 -5 -30 -9 -30 -44 0 -50 -18 -51 -23 -1 -2 20 -3 8 0 -27 5
-80 -6 -90 -97 -91 l-65 0 0 -32 c0 -38 -29 -52 -40 -19 -3 12 -13 21 -21 21
-19 0 -18 -14 4 -33 17 -16 109 -17 1120 -17 l1102 0 0 2005 c0 1938 -1 2005
-18 2005 -10 0 -22 -3 -25 -7z m-40 -329 c-3 -3 -12 -4 -19 -1 -8 3 -5 6 6 6
11 1 17 -2 13 -5z m63 2 c0 -3 -4 -8 -10 -11 -5 -3 -10 -1 -10 4 0 6 5 11 10
11 6 0 10 -2 10 -4z m-60 -46 c0 -5 -7 -10 -16 -10 -8 0 -12 5 -9 10 3 6 10
10 16 10 5 0 9 -4 9 -10z m0 -90 c0 -13 -7 -20 -20 -20 -23 0 -26 10 -8 28 18
18 28 15 28 -8z m0 -100 c0 -5 -2 -10 -4 -10 -3 0 -8 5 -11 10 -3 6 -1 10 4
10 6 0 11 -4 11 -10z m-60 -40 c0 -11 -4 -20 -10 -20 -5 0 -10 9 -10 20 0 11
5 20 10 20 6 0 10 -9 10 -20z m-120 -400 c0 -22 -4 -40 -10 -40 -5 0 -10 18
-10 40 0 22 5 40 10 40 6 0 10 -18 10 -40z m40 -10 c0 -5 -4 -10 -10 -10 -5 0
-10 5 -10 10 0 6 5 10 10 10 6 0 10 -4 10 -10z m-113 -172 c-2 -13 -4 -3 -4
22 0 25 2 35 4 23 2 -13 2 -33 0 -45z m20 10 c-3 -7 -5 -2 -5 12 0 14 2 19 5
13 2 -7 2 -19 0 -25z m48 -28 c4 -6 -7 -10 -27 -9 -27 0 -30 2 -13 9 27 12 33
12 40 0z m-45 -30 c18 -12 2 -12 -25 0 -13 6 -15 9 -5 9 8 0 22 -4 30 -9z
m-123 -192 c-2 -13 -4 -3 -4 22 0 25 2 35 4 23 2 -13 2 -33 0 -45z m20 0 c-2
-13 -4 -3 -4 22 0 25 2 35 4 23 2 -13 2 -33 0 -45z m-410 -1040 c-2 -13 -4 -3
-4 22 0 25 2 35 4 23 2 -13 2 -33 0 -45z m-184 -185 c-7 -2 -19 -2 -25 0 -7 3
-2 5 12 5 14 0 19 -2 13 -5z m7 -33 c0 -5 -9 -10 -20 -10 -11 0 -20 5 -20 10
0 6 9 10 20 10 11 0 20 -4 20 -10z m-96 -181 c-8 -14 -24 -10 -24 6 0 9 6 12
15 9 8 -4 12 -10 9 -15z m-104 -139 c0 -5 -5 -10 -11 -10 -5 0 -7 5 -4 10 3 6
8 10 11 10 2 0 4 -4 4 -10z m-100 -130 c0 -13 -20 -13 -40 0 -12 8 -9 10 13
10 15 0 27 -4 27 -10z m-120 -62 c0 -5 -4 -8 -10 -8 -5 0 -10 10 -10 23 0 18
2 19 10 7 5 -8 10 -18 10 -22z m67 10 c-3 -8 -6 -5 -6 6 -1 11 2 17 5 13 3 -3
4 -12 1 -19z m-157 -142 c0 -2 3 -11 6 -20 5 -13 -1 -16 -25 -16 -33 0 -39 8
-19 28 11 11 38 17 38 8z m-382 -448 c-6 -18 -28 -21 -28 -4 0 9 7 16 16 16 9
0 14 -5 12 -12z m-28 -78 c0 -13 -20 -13 -40 0 -12 8 -9 10 13 10 15 0 27 -4
27 -10z"/>
<path d="M14615 3940 c-3 -5 1 -10 9 -10 9 0 16 5 16 10 0 6 -4 10 -9 10 -6 0
-13 -4 -16 -10z"/>
<path d="M14556 3839 c3 -5 14 -9 25 -9 11 0 28 -7 37 -16 11 -12 17 -13 20
-5 2 7 2 15 -2 18 -9 10 -86 21 -80 12z"/>
<path d="M14480 3690 c0 -5 7 -10 16 -10 8 0 12 5 9 10 -3 6 -10 10 -16 10 -5
0 -9 -4 -9 -10z"/>
<path d="M14493 3523 c9 -2 23 -2 30 0 6 3 -1 5 -18 5 -16 0 -22 -2 -12 -5z"/>
<path d="M14510 3401 c0 -29 -5 -41 -17 -44 -14 -4 -12 -5 5 -6 20 -1 22 4 22
44 0 25 -2 45 -5 45 -3 0 -5 -18 -5 -39z"/>
<path d="M14533 3400 c0 -25 2 -35 4 -22 2 12 2 32 0 45 -2 12 -4 2 -4 -23z"/>
<path d="M14540 3340 c0 -5 5 -10 10 -10 6 0 10 5 10 10 0 6 -4 10 -10 10 -5
0 -10 -4 -10 -10z"/>
<path d="M0 3019 c0 -11 4 -17 10 -14 13 8 13 35 0 35 -5 0 -10 -9 -10 -21z"/>
<path d="M0 1480 l0 -1480 920 0 c709 0 920 3 920 12 0 9 3 9 12 0 15 -15 68
-16 68 -1 0 5 5 7 10 4 13 -8 32 4 25 16 -4 5 -14 5 -26 -2 -15 -7 -24 -7 -35
2 -22 18 -17 47 9 52 12 2 -15 5 -60 6 -106 1 -111 21 -5 22 90 1 72 17 -20
18 -45 1 -58 4 -58 16 0 8 9 15 20 15 24 0 25 9 6 36 -13 17 -15 17 -21 2 -4
-9 -13 -14 -21 -11 -19 7 -18 33 1 33 8 0 15 5 15 11 0 7 -14 8 -40 4 -26 -4
-40 -3 -40 4 0 6 -18 11 -40 11 -22 0 -40 5 -40 10 0 14 78 12 82 -2 5 -13 38
-4 38 10 0 11 -48 22 -91 22 -22 0 -29 5 -29 20 0 17 -7 20 -40 20 -22 0 -40
5 -40 10 0 6 23 10 50 10 28 0 50 5 50 10 0 6 -22 10 -50 10 -37 0 -50 4 -50
14 0 8 -6 16 -12 19 -7 2 -1 2 15 0 26 -4 27 -3 27 36 0 30 -4 41 -15 41 -8 0
-15 6 -15 14 0 11 -10 14 -40 11 -28 -3 -40 0 -40 9 0 8 14 13 36 14 51 2 53
9 5 17 l-41 7 0 46 -1 47 -14 -32 c-18 -42 -32 -42 -51 2 -8 20 -33 54 -56 76
-39 38 -40 40 -22 54 16 11 17 16 6 27 -11 11 -14 10 -21 -1 -11 -17 -41 -7
-41 14 0 8 9 15 20 15 11 0 20 7 20 15 0 11 -11 15 -40 15 -27 0 -40 4 -40 14
0 7 -10 17 -22 21 -22 7 -22 8 5 12 20 3 27 9 23 20 -3 8 -6 25 -6 38 0 19 -7
24 -40 30 -25 4 -40 12 -40 21 0 10 -12 14 -40 14 -33 0 -40 3 -40 19 0 11 8
22 18 24 9 2 -1 2 -23 1 -36 -4 -37 -3 -17 8 12 6 22 15 22 20 0 14 -43 47
-61 48 -9 0 -24 9 -33 19 -15 16 -16 25 -6 60 6 23 8 46 5 51 -10 16 -25 11
-25 -8 0 -28 -11 -34 -26 -14 -14 20 -1 52 21 52 20 0 19 16 0 24 -9 3 -18 -1
-21 -9 -4 -8 -17 -15 -30 -15 -21 0 -24 4 -24 40 0 33 3 40 20 40 12 0 20 -7
20 -16 0 -17 21 -15 27 2 4 12 -66 36 -79 28 -12 -7 -78 15 -78 27 0 5 11 11
25 15 31 8 32 21 3 27 l-23 4 23 2 c24 1 31 31 7 31 -8 0 -15 5 -15 10 0 6 7
10 15 10 8 0 15 5 15 11 0 8 -11 9 -31 5 -17 -3 -35 -6 -40 -6 -5 0 -9 -7 -9
-15 0 -8 7 -15 15 -15 8 0 15 -4 15 -10 0 -15 -17 -12 -40 7 -29 25 -25 43 10
43 28 0 30 2 30 40 0 29 -4 40 -15 40 -10 0 -15 -10 -15 -30 0 -16 -3 -30 -7
-30 -15 1 -56 52 -47 58 5 4 15 19 21 35 7 15 17 27 23 27 5 0 10 5 10 10 0 6
-16 10 -35 10 -27 0 -45 8 -70 34 -39 37 -43 46 -19 46 8 0 12 5 9 10 -3 6
-15 10 -26 10 -10 0 -19 7 -19 15 0 8 -6 15 -14 15 -17 0 -29 46 -24 92 3 29
0 33 -22 35 -14 0 -31 1 -37 2 -19 1 -16 19 5 24 12 3 8 8 -16 17 -19 7 -29
16 -24 19 17 10 3 161 -14 161 -8 0 -14 -7 -14 -15 0 -8 -7 -15 -15 -15 -16 0
-30 57 -22 95 5 29 -11 45 -24 24 -11 -18 -19 -8 -29 35 -7 32 -6 36 11 36 10
0 19 -4 19 -10 0 -5 -4 -10 -10 -10 -5 0 -10 -9 -10 -20 0 -11 5 -20 10 -20 6
0 10 9 10 19 0 10 8 22 17 25 14 6 13 9 -8 24 -42 29 -59 46 -59 59 0 17 27
17 33 1 4 -10 7 -10 18 0 11 10 10 12 -4 12 -13 0 -17 9 -17 40 0 32 -4 40
-18 40 -11 0 -24 12 -30 26 -7 14 -17 22 -22 19 -6 -3 -10 3 -10 14 0 10 3 21
8 24 4 2 1 2 -7 0 -18 -4 -81 18 -81 30 0 4 5 5 10 2 13 -8 42 14 34 26 -7 12
-44 11 -44 -1 0 -20 -28 -9 -34 13 -17 65 3 117 45 117 24 1 24 1 4 16 -14 11
-16 18 -7 21 6 3 12 9 12 15 0 5 -6 8 -12 5 -20 -6 -68 32 -68 54 0 12 -7 19
-20 19 -17 0 -20 -7 -20 -40 0 -22 -4 -40 -10 -40 -6 0 -10 33 -10 80 0 73 -2
80 -20 80 -20 0 -20 -7 -20 -1480z m127 1320 c16 0 21 -4 17 -15 -8 -20 -34
-19 -50 3 -17 21 -18 40 -2 24 7 -7 22 -12 35 -12z m-23 -65 c3 -9 0 -15 -9
-15 -8 0 -15 -7 -15 -15 0 -8 -7 -15 -15 -15 -8 0 -15 7 -15 15 0 8 7 15 15
15 8 0 15 7 15 15 0 8 4 15 9 15 5 0 11 -7 15 -15z m276 -715 c0 -5 -2 -10 -4
-10 -3 0 -8 5 -11 10 -3 6 -1 10 4 10 6 0 11 -4 11 -10z m17 -96 c-3 -3 -12
-4 -19 -1 -8 3 -5 6 6 6 11 1 17 -2 13 -5z m83 -30 c0 -11 -5 -14 -16 -10 -9
3 -21 6 -27 6 -16 0 14 20 31 20 6 0 12 -7 12 -16z m60 -158 c0 -3 -13 -11
-30 -20 -33 -16 -40 -11 -12 10 16 13 42 19 42 10z m20 -32 c0 -8 -5 -12 -10
-9 -6 4 -8 11 -5 16 9 14 15 11 15 -7z m317 -510 c-3 -3 -12 -4 -19 -1 -8 3
-5 6 6 6 11 1 17 -2 13 -5z m83 -94 c0 -5 -9 -10 -20 -10 -11 0 -20 5 -20 10
0 6 9 10 20 10 11 0 20 -4 20 -10z m-83 -52 c-3 -8 -6 -5 -6 6 -1 11 2 17 5
13 3 -3 4 -12 1 -19z m83 -18 c0 -5 -2 -10 -4 -10 -3 0 -8 5 -11 10 -3 6 -1
10 4 10 6 0 11 -4 11 -10z m160 -110 c0 -29 -4 -40 -15 -40 -11 0 -15 11 -15
40 0 29 4 40 15 40 11 0 15 -11 15 -40z m22 -65 c0 -5 -5 -11 -11 -13 -6 -2
-11 4 -11 13 0 9 5 15 11 13 6 -2 11 -8 11 -13z m218 -230 c0 -19 -11 -19 -36
0 -18 14 -18 14 9 15 17 0 27 -5 27 -15z m0 -55 c0 -5 -4 -10 -10 -10 -5 0
-10 5 -10 10 0 6 5 10 10 10 6 0 10 -4 10 -10z m0 -30 c0 -5 -9 -10 -19 -10
-11 0 -23 5 -26 10 -4 6 5 10 19 10 14 0 26 -4 26 -10z m0 -40 c0 -5 -4 -10
-10 -10 -5 0 -10 5 -10 10 0 6 5 10 10 10 6 0 10 -4 10 -10z m138 -27 c12 -3
22 -12 22 -19 0 -19 -29 -18 -36 1 -4 8 -15 15 -25 15 -10 0 -19 5 -19 11 0 7
7 8 18 4 9 -4 27 -10 40 -12z"/>
<path d="M14320 2950 c0 -5 4 -10 9 -10 6 0 13 5 16 10 3 6 -1 10 -9 10 -9 0
-16 -4 -16 -10z"/>
<path d="M14391 2944 c0 -11 3 -14 6 -6 3 7 2 16 -1 19 -3 4 -6 -2 -5 -13z"/>
<path d="M80 2920 c0 -5 7 -10 15 -10 8 0 15 5 15 10 0 6 -7 10 -15 10 -8 0
-15 -4 -15 -10z"/>
<path d="M14353 2840 c0 -25 2 -35 4 -22 2 12 2 32 0 45 -2 12 -4 2 -4 -23z"/>
<path d="M160 2655 c0 -8 7 -15 15 -15 8 0 15 4 15 9 0 5 -7 11 -15 15 -9 3
-15 0 -15 -9z"/>
<path d="M14140 2340 c0 -5 5 -10 10 -10 6 0 10 5 10 10 0 6 -4 10 -10 10 -5
0 -10 -4 -10 -10z"/>
<path d="M14113 2280 c0 -25 2 -35 4 -22 2 12 2 32 0 45 -2 12 -4 2 -4 -23z"/>
<path d="M14133 2280 c0 -25 2 -35 4 -22 2 12 2 32 0 45 -2 12 -4 2 -4 -23z"/>
<path d="M466 2048 c-6 -29 -4 -41 7 -53 18 -17 43 -20 52 -5 3 6 -5 10 -19
10 -22 0 -25 5 -28 43 l-4 42 -8 -37z"/>
<path d="M14000 1960 c0 -5 9 -10 21 -10 11 0 17 5 14 10 -3 6 -13 10 -21 10
-8 0 -14 -4 -14 -10z"/>
<path d="M560 1890 c0 -5 7 -10 15 -10 8 0 15 5 15 10 0 6 -7 10 -15 10 -8 0
-15 -4 -15 -10z"/>
<path d="M560 1830 c0 -5 9 -10 19 -10 11 0 23 5 26 10 4 6 -5 10 -19 10 -14
0 -26 -4 -26 -10z"/>
<path d="M13740 1535 c0 -8 5 -15 10 -15 6 0 10 7 10 15 0 8 -4 15 -10 15 -5
0 -10 -7 -10 -15z"/>
<path d="M830 1410 c0 -5 5 -10 10 -10 6 0 10 5 10 10 0 6 -4 10 -10 10 -5 0
-10 -4 -10 -10z"/>
<path d="M13633 1320 c0 -25 2 -35 4 -22 2 12 2 32 0 45 -2 12 -4 2 -4 -23z"/>
<path d="M13653 1320 c0 -25 2 -35 4 -22 2 12 2 32 0 45 -2 12 -4 2 -4 -23z"/>
<path d="M13550 1160 c0 -22 5 -40 10 -40 6 0 10 18 10 40 0 22 -4 40 -10 40
-5 0 -10 -18 -10 -40z"/>
<path d="M1048 1183 c6 -2 18 -2 25 0 6 3 1 5 -13 5 -14 0 -19 -2 -12 -5z"/>
<path d="M960 1155 c0 -8 7 -15 15 -15 8 0 15 7 15 15 0 8 -7 15 -15 15 -8 0
-15 -7 -15 -15z"/>
<path d="M1048 1153 c7 -3 16 -2 19 1 4 3 -2 6 -13 5 -11 0 -14 -3 -6 -6z"/>
<path d="M1028 1123 c6 -2 18 -2 25 0 6 3 1 5 -13 5 -14 0 -19 -2 -12 -5z"/>
<path d="M13048 713 c6 -2 18 -2 25 0 6 3 1 5 -13 5 -14 0 -19 -2 -12 -5z"/>
<path d="M12880 440 c0 -5 5 -10 10 -10 6 0 10 5 10 10 0 6 -4 10 -10 10 -5 0
-10 -4 -10 -10z"/>
<path d="M12785 350 c-3 -5 -1 -10 4 -10 6 0 11 5 11 10 0 6 -2 10 -4 10 -3 0
-8 -4 -11 -10z"/>
<path d="M1688 313 c6 -2 18 -2 25 0 6 3 1 5 -13 5 -14 0 -19 -2 -12 -5z"/>
<path d="M1840 160 c0 -6 7 -10 15 -10 8 0 15 2 15 4 0 2 -7 6 -15 10 -8 3
-15 1 -15 -4z"/>
</g>
</svg>
